<svg width="16" height="11" viewBox="0 0 16 11" fill="none" xmlns="http://www.w3.org/2000/svg">
<path d="M0 0.916667C0 0.673552 0.105357 0.440394 0.292893 0.268486C0.48043 0.0965773 0.734784 0 1 0H15C15.2652 0 15.5196 0.0965773 15.7071 0.268486C15.8946 0.440394 16 0.673552 16 0.916667C16 1.15978 15.8946 1.39294 15.7071 1.56485C15.5196 1.73676 15.2652 1.83333 15 1.83333H1C0.734784 1.83333 0.48043 1.73676 0.292893 1.56485C0.105357 1.39294 0 1.15978 0 0.916667ZM0 5.5C0 5.25689 0.105357 5.02373 0.292893 4.85182C0.48043 4.67991 0.734784 4.58333 1 4.58333H15C15.2652 4.58333 15.5196 4.67991 15.7071 4.85182C15.8946 5.02373 16 5.25689 16 5.5C16 5.74312 15.8946 5.97627 15.7071 6.14818C15.5196 6.32009 15.2652 6.41667 15 6.41667H1C0.734784 6.41667 0.48043 6.32009 0.292893 6.14818C0.105357 5.97627 0 5.74312 0 5.5ZM0 10.0833C0 9.84022 0.105357 9.60706 0.292893 9.43515C0.48043 9.26324 0.734784 9.16667 1 9.16667H15C15.2652 9.16667 15.5196 9.26324 15.7071 9.43515C15.8946 9.60706 16 9.84022 16 10.0833C16 10.3264 15.8946 10.5596 15.7071 10.7315C15.5196 10.9034 15.2652 11 15 11H1C0.734784 11 0.48043 10.9034 0.292893 10.7315C0.105357 10.5596 0 10.3264 0 10.0833Z" fill="#262522"/>
</svg>
